<svg width="88" height="16" viewBox="0 0 74 9" fill="none" xmlns="http://www.w3.org/2000/svg">
  <path d="M9.75184 2.71429C8.9406 2.36508 8.041 2.19048 7.05304 2.19048C6.17754 2.19048 5.45465 2.35714 4.88437 2.69048C4.32212 3.01587 3.8924 3.60317 3.59521 4.45238C3.30605 5.26984 3.34622 5.86508 3.71569 6.2381C4.0932 6.61111 4.77995 6.79762 5.77594 6.79762C6.75586 6.79762 7.65144 6.69444 8.46268 6.4881L7.64341 8.70238C6.87232 8.90079 5.92051 9 4.78798 9C2.78798 9 1.40646 8.53968 0.643402 7.61905C-0.11965 6.69841 -0.203988 5.43651 0.39039 3.83333C0.655451 3.11111 1.00485 2.49603 1.43858 1.9881C1.87232 1.48016 2.37834 1.08333 2.95666 0.797619C3.53497 0.511905 4.14943 0.309524 4.80003 0.190476C5.45063 0.063492 6.17754 0 6.98076 0C8.2418 0 9.42253 0.194445 10.5229 0.583334L9.75184 2.71429Z" fill="white"/>
  <path d="M14.7172 9C13.8096 9 13.0264 8.91667 12.3678 8.75C11.7092 8.58333 11.1911 8.34921 10.8136 8.04762C10.4361 7.74603 10.167 7.38095 10.0064 6.95238C9.84572 6.51587 9.78949 6.04365 9.83768 5.53571C9.88588 5.02778 10.0224 4.46825 10.2473 3.85714C10.7694 2.44444 11.5164 1.44841 12.4883 0.869048C13.4602 0.289683 14.7734 0 16.4281 0C17.3357 0 18.1148 0.0833334 18.7654 0.25C19.424 0.416667 19.9381 0.650794 20.3076 0.952381C20.6851 1.24603 20.9542 1.60714 21.1148 2.03571C21.2754 2.46429 21.3317 2.93254 21.2835 3.44048C21.2433 3.94048 21.1148 4.49206 20.8979 5.09524C20.3839 6.53175 19.6369 7.54365 18.657 8.13095C17.6851 8.71032 16.3718 9 14.7172 9ZM14.9341 6.88095C15.6168 6.88095 16.159 6.72619 16.5606 6.41667C16.9622 6.09921 17.3156 5.53175 17.6208 4.71429C17.9421 3.87302 17.9903 3.23016 17.7654 2.78571C17.5485 2.34127 17.0264 2.11905 16.1991 2.11905C15.5164 2.11905 14.9702 2.27381 14.5606 2.58333C14.159 2.89286 13.8096 3.45635 13.5124 4.27381C13.1831 5.12302 13.1309 5.76984 13.3558 6.21429C13.5807 6.65873 14.1068 6.88095 14.9341 6.88095Z" fill="white"/>
  <path d="M26.6685 9C25.7608 9 24.9777 8.91667 24.3191 8.75C23.6604 8.58333 23.1423 8.34921 22.7648 8.04762C22.3873 7.74603 22.1183 7.38095 21.9576 6.95238C21.797 6.51587 21.7407 6.04365 21.7889 5.53571C21.8371 5.02778 21.9737 4.46825 22.1986 3.85714C22.7207 2.44444 23.4677 1.44841 24.4395 0.869048C25.4114 0.289683 26.7247 0 28.3793 0C29.2869 0 30.066 0.0833334 30.7167 0.25C31.3753 0.416667 31.8893 0.650794 32.2588 0.952381C32.6363 1.24603 32.9054 1.60714 33.0661 2.03571C33.2267 2.46429 33.2829 2.93254 33.2347 3.44048C33.1946 3.94048 33.0661 4.49206 32.8492 5.09524C32.3351 6.53175 31.5881 7.54365 30.6082 8.13095C29.6363 8.71032 28.3231 9 26.6685 9ZM26.8853 6.88095C27.5681 6.88095 28.1102 6.72619 28.5118 6.41667C28.9134 6.09921 29.2669 5.53175 29.5721 4.71429C29.8934 3.87302 29.9416 3.23016 29.7167 2.78571C29.4998 2.34127 28.9777 2.11905 28.1504 2.11905C27.4677 2.11905 26.9215 2.27381 26.5118 2.58333C26.1102 2.89286 25.7608 3.45635 25.4636 4.27381C25.1343 5.12302 25.0821 5.76984 25.307 6.21429C25.5319 6.65873 26.058 6.88095 26.8853 6.88095Z" fill="white"/>
  <path d="M39.9478 8.78571L38.3695 5.57143H37.3936L36.2129 8.78571H32.8032L35.9599 0.214286H39.3695L38.1888 3.41667H39.0563L42.7069 0.214286H46.2611L41.2249 4.61905L43.478 8.78571H39.9478Z" fill="white"/>
  <path d="M47.8582 8.78571H44.4486L47.6052 0.214286H51.0149L47.8582 8.78571Z" fill="white"/>
  <path d="M55.5711 8.78571L55.029 2.5119L52.7157 8.78571H49.7639L52.9205 0.214286H56.6073C57.3864 0.214286 57.776 0.646825 57.776 1.51191L58.3181 6.55952L60.6555 0.214286H63.6193L60.4627 8.78571H55.5711Z" fill="white"/>
  <path d="M71.8193 8.63095C70.8072 8.87698 69.5663 9 68.0964 9C66.0562 9 64.6506 8.54365 63.8795 7.63095C63.1165 6.71032 63.0321 5.44444 63.6265 3.83333C63.8916 3.11111 64.241 2.49603 64.6747 1.9881C65.1165 1.48016 65.6305 1.08333 66.2169 0.797619C66.8032 0.511905 67.4217 0.309524 68.0723 0.190476C68.7309 0.063492 69.4659 0 70.2771 0C71.5542 0 72.7952 0.214286 74 0.642857L73.2289 2.77381C72.3373 2.38492 71.3775 2.19048 70.3494 2.19048C69.4578 2.19048 68.7229 2.35714 68.1446 2.69048C67.5663 3.01587 67.1285 3.60317 66.8313 4.45238C66.5341 5.29365 66.5542 5.90873 66.8916 6.29762C67.2289 6.68651 67.8675 6.88095 68.8072 6.88095C69 6.88095 69.1486 6.87698 69.253 6.86905L70.0241 4.75H73.241L71.8193 8.63095Z" fill="white"/>
</svg>
