<svg xmlns="http://www.w3.org/2000/svg" width="30" height="28" viewBox="0 0 30 28" fill="none">
  <path d="M27.3255 22.9349C26.9763 23.2943 26.7032 23.3308 26.3706 23.3308C26.2353 23.3308 26.1003 23.3068 25.9701 23.2576C25.5887 23.1125 25.3472 22.7697 25.3397 22.3629C25.3309 21.8601 25.5519 21.5777 25.7393 21.4294C26.2063 21.0601 27.0928 21.1686 27.1816 21.795C27.3529 21.4424 27.3083 20.9641 27.233 20.8297C27.123 20.6338 26.9694 20.4908 26.746 20.413C25.8555 20.1019 25.4283 20.8139 25.4111 20.843C25.3051 21.0201 25.0757 21.0773 24.899 20.9727C24.7219 20.8669 24.6638 20.638 24.7693 20.4608C25.0203 20.0394 25.8037 19.3384 26.967 19.6996C27.4375 19.8458 27.8173 20.184 27.9314 20.6552C28.1571 21.5898 27.7195 22.5293 27.3255 22.9349ZM18.1348 22.1511C17.681 22.1511 17.3131 21.7832 17.3131 21.3295C17.3131 20.8757 17.681 20.508 18.1348 20.508C18.5885 20.508 18.9562 20.8757 18.9562 21.3295C18.9562 21.7832 18.5885 22.1511 18.1348 22.1511ZM17.3426 25.3567C16.1197 25.6013 15.5872 24.5432 15.4226 24.1078C15.388 24.0163 15.4496 23.9172 15.5468 23.9049L18.7047 23.5033C18.8053 23.4905 18.8895 23.5762 18.8751 23.6764C18.8119 24.1083 18.5371 25.1178 17.3426 25.3567ZM14.5612 21.6993C14.5612 21.2456 14.9289 20.8776 15.3826 20.8776C15.8364 20.8776 16.2041 21.2456 16.2041 21.6993C16.2041 22.153 15.8364 22.5207 15.3826 22.5207C14.9289 22.5207 14.5612 22.153 14.5612 21.6993ZM8.85152 25.8479C8.62303 25.9622 8.3785 25.9918 8.1463 25.9918C7.70117 25.9918 7.27487 25.7635 6.93923 25.3712C6.44831 24.798 6.23168 23.8238 6.76746 23.0709C7.49988 22.0419 8.66185 22.1309 9.17368 22.3218C9.36708 22.3936 9.46517 22.6088 9.39311 22.802C9.32128 22.9949 9.10628 23.0928 8.91451 23.0221C8.87221 23.0068 7.94268 22.6827 7.37575 23.5042C6.95178 24.1185 7.52173 24.8912 7.52173 24.8912C7.52173 24.8912 7.52103 24.8814 7.52056 24.8642C7.51847 24.7773 7.52335 24.4995 7.66026 24.3075C7.83157 24.0679 8.09818 23.9733 8.22161 23.9447C8.47287 23.8865 8.70276 23.9258 8.89522 23.9865C9.27526 24.1057 9.53955 24.4158 9.56837 24.7763C9.58348 24.9679 9.54792 25.4997 8.85152 25.8479ZM26.5015 18.5662C25.3718 18.5213 24.4785 19.3342 24.4697 19.3426L24.4688 19.343C24.436 19.3737 24.3983 19.397 24.3577 19.4139C24.3558 19.4146 24.3539 19.4158 24.3521 19.4165C24.3135 19.4321 24.2724 19.44 24.2303 19.4418C24.2266 19.442 24.2231 19.4425 24.2194 19.4425C24.1803 19.4432 24.141 19.4369 24.1022 19.4248C24.0959 19.4228 24.0897 19.4207 24.0834 19.4183C24.075 19.4153 24.0666 19.4135 24.0585 19.4097C24.0292 19.3965 24.0034 19.3788 23.9795 19.3595C23.9774 19.3577 23.9748 19.3572 23.973 19.3556C23.9439 19.3319 21.8543 17.6625 16.5053 18.4537C11.264 19.2303 10.0484 21.1695 10.0367 21.1891C10.0277 21.2042 10.0147 21.2158 10.0037 21.2293C9.99769 21.237 9.99583 21.2463 9.98909 21.2535C9.98328 21.2597 9.9763 21.2644 9.97026 21.2702C9.96631 21.2737 9.96236 21.2769 9.9584 21.2804C9.90425 21.3278 9.84056 21.3576 9.77315 21.3683C9.76873 21.369 9.76432 21.369 9.75967 21.3697C9.74456 21.3715 9.72945 21.3743 9.71411 21.3743C9.70598 21.3743 9.69807 21.3704 9.68994 21.3699C9.67878 21.3692 9.66785 21.3715 9.65647 21.3699C9.65042 21.369 9.26085 21.3102 8.71717 21.3102C8.38501 21.3102 7.99567 21.332 7.60076 21.4025C6.30141 21.6342 5.54668 22.2683 5.35747 23.2871C5.22219 24.0167 5.24427 25.0827 6.11941 26.0162C7.28719 27.2618 10.2241 28.5626 17.5834 27.6816C26.3639 26.6307 28.4212 23.5602 28.8982 22.2888C29.2647 21.3118 29.1194 20.3251 28.5095 19.6489C27.8891 18.9611 27.2134 18.5967 26.5015 18.5662Z" fill="white"/>
  <path d="M16.396 17.7151C20.2415 17.1449 22.5101 17.7843 23.6166 18.292C23.8657 18.4063 24.1581 18.295 24.272 18.0458C24.4582 17.6381 24.6979 17.113 24.9652 16.5264C25.0865 16.2597 24.9517 15.9473 24.676 15.8481C16.8123 13.0132 10.1108 16.5303 7.85473 17.9647C7.5758 18.1421 7.54489 18.5356 7.79081 18.7559C8.40608 19.307 8.9393 19.7898 9.32422 20.1394C9.5111 20.3096 9.79608 20.314 9.98482 20.1459C10.8088 19.4133 12.6414 18.2713 16.396 17.7151Z" fill="#F2C343"/>
  <path d="M12.1835 12.8036C12.1293 12.8312 12.0714 12.8443 12.0145 12.8443C11.8783 12.8443 11.7474 12.7696 11.6814 12.6399L9.62779 8.60082C9.53412 8.41719 9.60757 8.19219 9.79143 8.09898C9.97506 8.00507 10.2001 8.07899 10.2933 8.26262L12.3471 12.3015C12.4408 12.4854 12.3673 12.7101 12.1835 12.8036ZM18.8348 11.2304L19.4917 7.36935C19.5263 7.16619 19.7188 7.03068 19.9226 7.06392C20.1258 7.09855 20.2627 7.29125 20.2278 7.49487L19.5707 11.3559C19.54 11.5379 19.3819 11.6667 19.2032 11.6667C19.1823 11.6667 19.1614 11.6649 19.14 11.6614C18.9368 11.6267 18.7999 11.434 18.8348 11.2304ZM25.0586 15.1926C25.3052 15.2835 25.5804 15.1733 25.689 14.9339C26.1118 14.0023 26.5451 13.043 26.9126 12.2223C27.9381 9.93224 28.8358 6.52582 27.9911 4.4629C27.6736 3.68748 27.1459 3.16449 26.3782 2.86441C24.2514 2.0339 22.926 2.79003 21.757 3.45737C21.0495 3.86088 20.44 4.20931 19.769 4.11912C19.0321 4.01964 18.6704 3.31 18.2874 2.55921C17.6391 1.28706 16.9034 -0.158487 14.2975 0.0142155C11.5801 0.190174 10.4725 2.27122 9.5827 3.9434C9.0804 4.88711 8.64666 5.70228 8.0014 6.04931C7.28897 6.43331 6.4057 6.33057 5.47105 6.22132C4.01132 6.05141 2.50139 5.87498 1.15323 7.29218C0.406861 8.07759 0.0667991 8.89742 0.113055 9.79905C0.224627 11.9668 2.6197 14.2554 4.41135 15.7881C5.08404 16.3634 5.78183 16.9729 6.44661 17.56C6.61675 17.7104 6.86407 17.7265 7.05235 17.5995C8.94767 16.3204 16.3321 11.9763 25.0586 15.1926Z" fill="#F2C343"/>
</svg>
