<svg xmlns="http://www.w3.org/2000/svg" viewBox="0 0 18 18" width="18" height="18" fill="currentColor">
  <g clip-path="url(#clip0_430_28408)">
    <path d="M17 4.50013H13.7861V9.14271H9.14258V13.7863H4.5V17.0001H3.5V12.7863H8.14258V8.14271H12.7861V3.50013H17V4.50013Z"/>
    <path d="M6.93066 1.07337C7.95525 0.93047 8.86648 1.59328 9.47754 2.50501C10.1011 3.43559 10.4999 4.73447 10.5 6.15736H9.5C9.49994 4.91031 9.14875 3.80985 8.64746 3.06165C8.13364 2.29494 7.54452 1.99843 7.06934 2.06458C6.59489 2.13077 5.94559 2.59739 5.40527 4.03529C4.87273 5.45272 4.50002 7.69113 4.5 11.0001H3.5C3.50002 7.63383 3.87736 5.26035 4.46973 3.68372C5.05434 2.12793 5.90528 1.21651 6.93066 1.07337Z"/>
  </g>
  <defs>
    <clipPath id="clip0_430_28408">
      <rect width="18" height="18"/>
    </clipPath>
  </defs>
</svg>
