<svg xmlns="http://www.w3.org/2000/svg" viewBox="0 0 18 18" width="18" height="18" fill="currentColor">
  <g clip-path="url(#clip0_430_28382)">
    <path fill-rule="evenodd" clip-rule="evenodd" d="M8 2C11.3137 2 14 4.68629 14 8C14 9.55151 13.4108 10.9652 12.4443 12.0303L15.707 15.293L15 16L11.7109 12.7109C10.6895 13.5166 9.40192 14 8 14C4.68629 14 2 11.3137 2 8C2 4.68629 4.68629 2 8 2ZM8 3C5.23858 3 3 5.23858 3 8C3 10.7614 5.23858 13 8 13C9.1259 13 10.1642 12.627 11 11.999L11.707 11.293L11.7354 11.3213C12.5213 10.438 13 9.27532 13 8C13 5.23858 10.7614 3 8 3Z"/>
  </g>
  <defs>
    <clipPath id="clip0_430_28382">
      <rect width="18" height="18"/>
    </clipPath>
  </defs>
</svg>
