<svg class="fill-gray-700" xmlns="http://www.w3.org/2000/svg" width="16" height="13" viewBox="0 0 16 13" fill="none">
  <path d="M15.7373 9.41699C15.9705 9.41699 16.0874 9.69832 15.9228 9.86328L13.4004 12.3857C13.3038 12.4823 13.171 12.5391 13.0302 12.5391H0.262666C0.0293481 12.5391 -0.0878124 12.2567 0.0771194 12.0918L2.59958 9.57031C2.69613 9.47377 2.8289 9.41699 2.9697 9.41699H15.7373Z" fill="#808080"/>
  <path d="M13.0302 4.67871C13.171 4.67871 13.3038 4.73458 13.4004 4.83105L15.9228 7.35352C16.0876 7.51846 15.9706 7.7998 15.7373 7.7998H2.9697C2.82902 7.7998 2.69611 7.74386 2.59958 7.64746L0.0771194 5.125C-0.0878124 4.96007 0.0293481 4.67871 0.262666 4.67871H13.0302Z" fill="#808080"/>
  <path d="M15.7373 0C15.9705 0 16.0875 0.281333 15.9228 0.446289L13.4004 2.96875C13.3038 3.06527 13.171 3.12207 13.0302 3.12207H0.262666C0.0293481 3.12207 -0.0878124 2.83974 0.0771194 2.6748L2.59958 0.15332C2.70015 0.0567749 2.83292 0 2.9697 0H15.7373Z" fill="#808080"/>
</svg>
